<?xml version="1.0" standalone="no"?>
<!DOCTYPE svg PUBLIC "-//W3C//DTD SVG 20010904//EN"
 "http://www.w3.org/TR/2001/REC-SVG-20010904/DTD/svg10.dtd">
<svg version="1.0" xmlns="http://www.w3.org/2000/svg"
 width="1080.000000pt" height="1080.000000pt" viewBox="0 0 1080.000000 1080.000000"
 preserveAspectRatio="xMidYMid meet">
<metadata>
Created by potrace 1.14, written by Peter Selinger 2001-2017
</metadata>
<g transform="translate(0.000000,1080.000000) scale(0.100000,-0.100000)"
fill="#000000" stroke="none">
<path d="M5247 10794 c-1 -1 -74 -4 -162 -7 -88 -4 -176 -8 -195 -11 -19 -2
-64 -7 -100 -11 -36 -3 -92 -10 -125 -15 -33 -5 -78 -12 -100 -15 -22 -3 -65
-10 -95 -16 -30 -6 -77 -14 -105 -19 -347 -63 -791 -202 -1140 -357 -146 -64
-358 -171 -495 -249 -120 -68 -407 -249 -420 -265 -3 -3 -28 -21 -55 -40 -43
-29 -139 -101 -195 -146 -305 -243 -611 -545 -869 -858 -9 -11 -62 -81 -118
-155 -279 -372 -513 -789 -681 -1210 -59 -148 -161 -440 -178 -510 -2 -8 -20
-76 -39 -150 -35 -129 -70 -286 -81 -360 -3 -19 -7 -42 -10 -51 -2 -9 -7 -34
-9 -55 -3 -20 -7 -49 -10 -63 -10 -51 -13 -77 -20 -136 -4 -32 -8 -66 -10 -75
-1 -8 -6 -53 -9 -100 -4 -47 -9 -103 -12 -125 -8 -58 -8 -706 0 -795 4 -41 9
-95 11 -120 3 -25 7 -69 10 -98 2 -29 7 -63 10 -75 2 -12 7 -44 10 -72 3 -27
8 -59 10 -70 3 -11 7 -36 10 -55 10 -70 24 -147 45 -240 11 -52 23 -106 26
-120 15 -76 82 -311 133 -465 96 -298 269 -682 441 -980 115 -201 335 -524
452 -665 16 -19 37 -44 46 -56 180 -223 473 -519 717 -725 547 -462 1211 -820
1918 -1034 48 -15 100 -29 114 -31 15 -3 30 -7 35 -10 4 -3 16 -7 25 -9 10 -2
48 -11 86 -19 37 -9 97 -23 135 -31 141 -33 380 -72 544 -91 29 -3 69 -7 88
-10 220 -25 806 -24 1044 1 115 12 133 14 171 20 22 3 54 8 70 10 17 3 50 8
75 11 70 9 376 71 470 94 305 77 652 198 924 322 426 195 847 459 1201 752
158 131 201 171 385 356 168 168 202 205 300 320 30 36 60 70 65 76 6 6 21 26
35 44 34 45 148 193 158 205 17 21 232 346 232 350 0 3 12 24 27 48 15 23 32
51 38 62 6 11 40 72 75 135 188 339 365 785 469 1180 43 162 91 387 106 496 3
17 11 74 19 125 8 52 18 121 21 154 4 33 8 76 10 95 26 227 25 827 -1 1055 -8
71 -26 209 -29 234 -3 13 -7 43 -10 65 -4 23 -8 48 -9 56 -2 8 -6 38 -10 65
-5 28 -16 86 -27 130 -10 45 -20 92 -22 105 -46 243 -209 737 -332 1006 -14
30 -25 56 -25 59 -1 2 -31 64 -67 137 -138 277 -321 575 -501 818 -47 63 -88
117 -92 120 -3 3 -13 14 -21 26 -86 125 -400 459 -635 675 -234 215 -618 490
-939 671 -332 188 -640 323 -1005 439 -169 55 -184 59 -208 64 -11 2 -54 13
-94 24 -40 11 -84 23 -98 25 -14 3 -43 10 -65 15 -45 10 -243 49 -294 57 -18
3 -41 7 -50 9 -9 2 -44 6 -76 10 -33 4 -68 9 -79 11 -10 2 -41 6 -70 9 -28 3
-67 7 -86 10 -90 11 -673 27 -683 19z"/>
</g>
</svg>
