<?xml version="1.0" standalone="no"?>
<!DOCTYPE svg PUBLIC "-//W3C//DTD SVG 20010904//EN"
 "http://www.w3.org/TR/2001/REC-SVG-20010904/DTD/svg10.dtd">
<svg version="1.0" xmlns="http://www.w3.org/2000/svg"
 width="1080.000000pt" height="1080.000000pt" viewBox="0 0 1080.000000 1080.000000"
 preserveAspectRatio="xMidYMid meet">
<metadata>
Created by potrace 1.14, written by Peter Selinger 2001-2017
</metadata>
<g transform="translate(0.000000,1080.000000) scale(0.100000,-0.100000)"
fill="#000000" stroke="none">
<path d="M5277 10794 c-1 -1 -67 -5 -147 -8 -80 -4 -161 -9 -180 -10 -54 -5
-161 -16 -200 -21 -19 -2 -57 -7 -85 -10 -27 -4 -57 -8 -66 -11 -9 -2 -35 -7
-58 -9 -59 -6 -325 -61 -466 -96 -184 -46 -537 -158 -597 -190 -13 -7 -24 -12
-26 -11 -1 1 -18 -5 -38 -13 -20 -8 -40 -15 -45 -15 -5 0 -17 -4 -27 -10 -23
-13 -172 -80 -178 -80 -7 0 -275 -134 -351 -176 -375 -206 -717 -451 -1054
-754 -163 -147 -411 -411 -558 -595 -97 -121 -88 -109 -162 -210 -324 -444
-584 -949 -758 -1473 -28 -85 -53 -163 -56 -175 -2 -12 -16 -62 -30 -112 -28
-102 -88 -367 -105 -465 -22 -130 -49 -327 -55 -400 -4 -41 -8 -88 -10 -105
-8 -60 -18 -323 -18 -440 0 -126 11 -407 17 -440 2 -11 7 -63 11 -115 3 -52 8
-97 10 -100 2 -3 6 -30 9 -60 7 -60 22 -163 30 -196 2 -12 7 -39 10 -60 3 -22
8 -50 11 -64 3 -14 7 -36 10 -50 58 -309 195 -742 335 -1065 54 -124 179 -380
226 -463 395 -693 880 -1251 1474 -1696 63 -47 120 -90 125 -94 59 -48 395
-258 530 -332 162 -89 475 -235 620 -290 11 -4 34 -13 50 -20 159 -66 536
-179 750 -225 11 -2 52 -11 90 -19 39 -8 93 -18 120 -22 28 -3 52 -8 55 -9 3
-2 26 -6 50 -10 25 -3 56 -8 70 -10 70 -12 173 -25 240 -31 41 -3 89 -8 105
-10 315 -33 912 -14 1245 41 14 2 41 7 60 10 115 19 268 48 320 61 84 21 108
26 130 30 129 25 576 171 717 235 24 10 45 19 48 19 10 0 202 88 330 152 152
76 250 128 323 175 29 18 55 33 58 33 10 0 300 194 394 263 96 71 271 207 280
217 3 4 41 37 85 75 296 256 520 501 832 910 72 94 278 423 375 599 33 61 160
321 183 376 15 36 35 83 45 105 31 68 147 382 154 417 2 7 6 20 9 28 3 8 13
42 22 75 9 33 21 71 25 85 42 131 122 501 146 680 4 30 8 57 9 60 1 3 5 39 9
80 5 41 10 82 11 91 3 15 15 153 21 249 6 91 6 537 0 615 -4 44 -9 107 -11
141 -6 89 -15 167 -30 274 -8 52 -16 115 -20 140 -6 50 -23 140 -60 315 -24
116 -97 381 -144 523 -164 493 -402 967 -694 1384 -77 109 -242 327 -284 373
-10 12 -47 54 -83 95 -526 602 -1209 1101 -1925 1404 -41 18 -134 56 -170 71
-174 71 -499 172 -705 220 -170 39 -192 44 -225 50 -16 3 -41 8 -55 10 -32 7
-135 23 -180 29 -258 35 -254 35 -507 52 -77 5 -412 11 -416 8z"/>
</g>
</svg>
